<svg
    xmlns="http://www.w3.org/2000/svg"
    viewBox="0 0 24 24"
    width="512"
    height="512"
>
    <path
        d="M19.707,10.293l-7-7c-0.391-0.391-1.023-0.391-1.414,0l-7,7C4.105,10.488,4,10.744,4,11s0.105,0.512,0.293,0.707
        C4.488,11.895,4.744,12,5,12s0.512-0.105,0.707-0.293L11,6.414V17c0,0.553,0.447,1,1,1s1-0.447,1-1V6.414l5.293,5.293
        C17.488,11.895,17.744,12,18,12s0.512-0.105,0.707-0.293C19.902,11.512,20,11.256,20,11S19.902,10.488,19.707,10.293z"
    />
    <path
        d="M19,18H5c-0.553,0-1,0.447-1,1s0.447,1,1,1h14c0.553,0,1-0.447,1-1S19.553,18,19,18z"
    />
</svg>