<svg data-v-423bf9ae="" xmlns="http://www.w3.org/2000/svg" viewBox="0 0 384 90" class="iconLeftSlogan"><!----><defs data-v-423bf9ae=""><linearGradient data-v-423bf9ae="" gradientTransform="rotate(25)" id="05e67ff9-9e78-434b-9246-8587f6ff7334" x1="0%" y1="0%" x2="100%" y2="0%"><stop data-v-423bf9ae="" offset="0%" style="stop-color: rgb(66, 15, 20); stop-opacity: 1;"></stop><stop data-v-423bf9ae="" offset="100%" style="stop-color: rgb(197, 84, 94); stop-opacity: 1;"></stop></linearGradient></defs><!----><g data-v-423bf9ae="" id="a6d13f1e-da9d-4b29-ac73-f7f8d0dafe7b" fill="#ffffff" transform="matrix(4.14650994421302,0,0,4.14650994421302,107.09744187180243,-10.573599921603623)"><path d="M10.74 8.58L10.74 8.58Q10.74 10.04 10.07 11.24Q9.41 12.45 8.09 13.23Q6.76 14.01 4.95 14.01Q3.14 14.01 1.92 12.96Q0.70 11.91 0.70 10.36L0.70 10.36Q0.70 9.23 1.42 8.42Q2.14 7.62 3.19 7.42L3.19 7.42Q3.19 6.23 3.14 4.59L3.14 4.59Q2.46 4.59 2.46 4.12Q2.46 3.64 3.40 3.40Q4.34 3.16 5.49 3.16Q6.64 3.16 7.69 3.63Q8.74 4.09 9.38 4.87L9.38 4.87Q10.74 6.48 10.74 8.58ZM3.15 10.79L3.15 10.79L3.21 9.07L3.21 8.40Q2.56 8.58 2.18 9.12Q1.79 9.66 1.79 10.36L1.79 10.36Q1.79 11.45 2.67 12.25L2.67 12.25Q3.58 13.03 5.00 13.03L5.00 13.03Q6.94 13.03 8.27 11.75Q9.59 10.47 9.59 8.72Q9.59 6.97 8.55 5.60L8.55 5.60Q8.04 4.93 7.20 4.54Q6.36 4.14 5.33 4.14L5.33 4.14Q4.84 4.14 4.28 4.27L4.28 4.27L4.21 7.35Q5.15 7.41 5.91 7.93Q6.66 8.46 6.66 9.03L6.66 9.03Q6.66 9.37 6.38 9.46L6.38 9.46Q6.31 9.51 6.17 9.51Q6.03 9.51 5.91 9.40Q5.78 9.30 5.54 9.03Q5.31 8.76 5.18 8.65L5.18 8.65Q4.70 8.29 4.20 8.29L4.20 8.29L4.21 9.30L4.26 10.14Q4.28 10.50 4.28 10.65Q4.28 10.79 4.28 10.95Q4.27 11.10 4.12 11.29Q3.96 11.48 3.80 11.48Q3.64 11.48 3.51 11.42L3.51 11.42Q3.15 11.24 3.15 10.79ZM15.96 7.50L15.96 7.50Q15.04 7.50 14.41 8.20Q13.79 8.89 13.59 9.81L13.59 9.81Q14.35 10.04 15.29 10.04Q16.24 10.04 16.81 9.72Q17.39 9.39 17.39 8.83Q17.39 8.27 17.00 7.89Q16.62 7.50 15.96 7.50ZM15.36 10.92L15.36 10.92Q14.63 10.92 13.58 10.71L13.58 10.71Q13.66 11.70 14.32 12.40Q14.97 13.10 15.83 13.10Q16.70 13.10 17.26 12.68Q17.82 12.25 18.00 12.25Q18.17 12.25 18.28 12.36Q18.38 12.46 18.38 12.61L18.38 12.61Q18.38 13.01 17.58 13.51Q16.77 14.01 15.83 14.01L15.83 14.01Q14.38 14.01 13.52 12.98Q12.66 11.96 12.60 10.53L12.60 10.53Q11.86 10.29 11.86 9.80L11.86 9.80Q11.86 9.48 12.10 9.38L12.10 9.38Q12.18 9.35 12.31 9.35Q12.45 9.35 12.68 9.48L12.68 9.48Q13.01 8.20 13.85 7.40Q14.70 6.59 15.84 6.59Q16.98 6.59 17.68 7.22Q18.38 7.85 18.38 8.87Q18.38 9.88 17.51 10.40Q16.65 10.92 15.36 10.92ZM22.81 12.07L22.81 12.07L23.53 10.07Q23.70 9.62 24.04 8.55Q24.37 7.49 24.50 7.17L24.50 7.17Q24.70 6.66 25.05 6.66L25.05 6.66Q25.26 6.66 25.40 6.80Q25.55 6.93 25.55 7.12Q25.55 7.31 25.47 7.52Q25.40 7.73 25.33 7.88Q25.27 8.02 25.17 8.28Q25.07 8.54 24.93 8.89Q24.79 9.24 24.16 11.02Q23.52 12.80 23.23 13.37Q22.93 13.94 22.45 13.94Q21.97 13.94 21.71 13.44L21.71 13.44Q21.63 13.29 20.99 11.59L20.99 11.59L20.15 9.39Q19.64 8.11 19.52 7.75Q19.39 7.39 19.39 7.16Q19.39 6.93 19.53 6.80Q19.67 6.66 19.88 6.66L19.88 6.66Q20.26 6.66 20.45 7.15L20.45 7.15Q20.58 7.48 20.86 8.39L20.86 8.39L21.69 10.74Q22.12 11.97 22.26 12.32Q22.40 12.67 22.46 12.68L22.46 12.68Q22.57 12.68 22.81 12.07ZM29.41 13.41Q29.41 13.57 29.25 13.76Q29.09 13.94 28.83 13.94Q28.57 13.94 28.43 13.76Q28.28 13.57 28.27 13.41Q28.27 13.26 28.27 13.10Q28.27 12.95 28.29 12.05Q28.32 11.14 28.32 8.55Q28.32 5.96 28.48 5.07L28.48 5.07Q27.73 5.01 26.84 4.75L26.84 4.75Q25.19 4.24 25.19 3.65L25.19 3.65Q25.17 3.33 25.47 3.18L25.47 3.18Q25.61 3.11 25.74 3.11Q25.87 3.11 26.01 3.22L26.01 3.22Q26.22 3.33 26.38 3.44L26.38 3.44Q26.92 3.82 28.69 4.09L28.69 4.09Q29.05 3.35 29.82 2.95Q30.59 2.55 31.46 2.55Q32.34 2.55 32.82 2.94L32.82 2.94Q33.32 3.32 33.32 3.83Q33.32 4.34 32.75 4.77Q32.17 5.21 30.72 5.21L30.72 5.21Q29.92 5.21 29.47 5.17L29.47 5.17Q29.33 5.59 29.33 7.98Q29.33 10.37 29.37 11.82Q29.41 13.26 29.41 13.41ZM31.36 3.53L31.36 3.53Q30.18 3.53 29.71 4.20L29.71 4.20Q30.07 4.27 30.51 4.27Q30.94 4.27 31.60 4.14Q32.27 4.02 32.27 3.82L32.27 3.82Q32.27 3.53 31.36 3.53ZM40.63 9.39L40.63 9.39L40.56 11.59L40.56 12.19Q40.59 12.77 40.84 12.88L40.84 12.88Q40.94 12.91 41.06 12.93Q41.19 12.95 41.24 12.98Q41.29 13.01 41.29 13.09L41.29 13.09Q41.29 13.45 41.06 13.70Q40.82 13.94 40.52 13.94L40.52 13.94Q40.00 13.94 39.79 13.54Q39.58 13.13 39.58 12.29L39.58 12.29L39.63 9.72Q39.63 8.75 39.22 8.17Q38.81 7.59 38.09 7.59Q37.38 7.59 36.72 8.38Q36.05 9.17 35.77 10.19L35.77 10.19L35.81 13.23Q35.81 13.94 35.28 13.94L35.28 13.94Q34.64 13.94 34.64 12.98Q34.64 12.03 34.92 10.19L34.92 10.19Q34.92 9.24 34.79 6.60Q34.66 3.96 34.66 3.75Q34.66 3.54 34.81 3.35Q34.96 3.15 35.12 3.15Q35.28 3.15 35.42 3.22L35.42 3.22Q35.76 3.37 35.76 3.77L35.76 3.77Q35.76 3.82 35.76 3.86L35.76 3.86L35.76 8.44Q36.78 6.66 38.28 6.66L38.28 6.66Q39.41 6.66 40.02 7.47Q40.63 8.27 40.63 9.39ZM43.43 3.65L43.43 3.65Q44.00 3.65 44.00 4.33L44.00 4.33Q44.00 4.63 43.80 4.91Q43.60 5.18 43.32 5.18L43.32 5.18Q42.73 5.18 42.73 4.47L42.73 4.47Q42.73 4.13 42.93 3.89Q43.13 3.65 43.43 3.65ZM43.89 7.36L43.89 7.36L43.82 10.30L43.89 13.24Q43.89 13.94 43.36 13.94Q42.83 13.94 42.83 13.24L42.83 13.24L42.90 10.30L42.83 7.36Q42.83 6.66 43.36 6.66Q43.89 6.66 43.89 7.36ZM51.87 9.39L51.87 9.39L51.80 11.59L51.80 12.19Q51.83 12.77 52.08 12.88L52.08 12.88Q52.18 12.91 52.30 12.93Q52.43 12.95 52.48 12.98Q52.53 13.01 52.53 13.09L52.53 13.09Q52.53 13.45 52.30 13.70Q52.07 13.94 51.76 13.94L51.76 13.94Q51.24 13.94 51.03 13.54Q50.82 13.13 50.82 12.29L50.82 12.29L50.88 9.72Q50.88 8.75 50.46 8.17Q50.05 7.59 49.34 7.59Q48.62 7.59 47.96 8.38Q47.29 9.17 47.01 10.19L47.01 10.19L47.05 13.23Q47.05 13.94 46.52 13.94L46.52 13.94Q45.88 13.94 45.88 12.98Q45.88 12.03 46.16 10.19L46.16 10.19Q46.16 9.60 46.04 8.54Q45.92 7.48 45.92 7.25Q45.92 7.03 46.07 6.85Q46.23 6.66 46.47 6.66Q46.70 6.66 46.86 6.85Q47.01 7.03 47.01 7.24Q47.01 7.45 47.01 7.87Q47.00 8.29 47.00 8.44L47.00 8.44Q48.02 6.66 49.52 6.66L49.52 6.66Q50.64 6.66 51.25 7.47Q51.87 8.27 51.87 9.39ZM58.74 10.53L58.74 10.53L58.74 8.39Q57.97 7.57 57.04 7.57Q56.11 7.57 55.42 8.40Q54.73 9.23 54.73 10.38Q54.73 11.54 55.17 12.29Q55.61 13.03 56.36 13.03Q57.12 13.03 57.76 12.33Q58.39 11.62 58.74 10.53ZM58.72 7.32L58.72 7.32Q58.74 6.66 59.25 6.66L59.25 6.66Q59.89 6.66 59.89 7.62Q59.89 8.58 59.61 10.42L59.61 10.42Q59.78 12.12 59.78 12.96L59.78 12.96Q59.78 14.78 58.91 15.90Q58.04 17.02 56.50 17.02L56.50 17.02Q55.66 17.02 54.88 16.67Q54.10 16.31 54.10 15.95Q54.10 15.60 54.42 15.60L54.42 15.60Q54.54 15.60 55.13 15.86Q55.72 16.11 56.50 16.11L56.50 16.11Q57.62 16.11 58.27 15.28Q58.91 14.45 58.91 13.10L58.91 13.10Q58.91 12.61 58.84 12.10L58.84 12.10Q58.52 12.85 57.83 13.40Q57.15 13.94 56.41 13.94L56.41 13.94Q55.06 13.94 54.32 12.78L54.32 12.78Q53.69 11.73 53.69 10.33Q53.69 8.93 54.63 7.80Q55.57 6.66 56.97 6.66L56.97 6.66Q57.93 6.66 58.72 7.32ZM66.67 11.79L66.67 11.79Q66.67 12.73 65.89 13.34Q65.11 13.94 64.04 13.94Q62.96 13.94 62.15 13.45L62.15 13.45Q61.35 12.95 61.35 12.46L61.35 12.46Q61.35 12.14 61.61 12.03Q61.88 11.91 62.02 12.05L62.02 12.05Q62.05 12.07 62.58 12.60L62.58 12.60Q62.73 12.74 63.15 12.89Q63.57 13.03 63.90 13.03L63.90 13.03Q64.68 13.03 65.17 12.71Q65.66 12.39 65.66 11.80L65.66 11.80Q65.66 11.06 64.26 10.58L64.26 10.58Q62.71 10.05 62.27 9.67L62.27 9.67Q62.06 9.49 61.89 9.19Q61.71 8.89 61.71 8.55L61.71 8.55Q61.71 7.80 62.41 7.23Q63.10 6.66 64.06 6.66Q65.03 6.66 65.63 6.99Q66.23 7.32 66.23 7.73L66.23 7.73Q66.23 8.19 65.74 8.19L65.74 8.19Q65.55 8.19 65.32 8.04L65.32 8.04Q64.65 7.57 64.03 7.57Q63.41 7.57 63.08 7.85L63.08 7.85Q62.71 8.12 62.71 8.48Q62.71 8.83 63.07 9.06Q63.43 9.28 64.26 9.61Q65.09 9.94 65.27 10.02L65.27 10.02Q65.88 10.29 66.28 10.75Q66.67 11.21 66.67 11.79Z"></path></g><!----><g data-v-423bf9ae="" id="644265fd-10ed-4b3e-81da-83bcc844905e" transform="matrix(2.8125,0,0,2.8125,0,0)" stroke="none" fill="#ffffff"><path d="M15.965 16.258l.707-.707 10.39 10.39-.707.707z"></path><path d="M4.935 26.357L26.018 5.274l.707.707L5.642 27.065z"></path><path d="M31 1v4.194h-4.194V1H31m1-1h-6.194v6.194H32V0zM31 26.806V31h-4.194v-4.194H31m1-1h-6.194V32H32v-6.194zM5.194 26.806V31H1v-4.194h4.194m1-1H0V32h6.194v-6.194z"></path></g><!----><g data-v-423bf9ae="" id="427f5c94-7016-49dc-9772-a0ce76207ef1" fill="#ffffff" transform="matrix(1.1405442144898943,0,0,1.1405442144898943,109.62361822286601,53.51030350668697)"><path d="M2.24 6.19L2.24 14.03L3.47 14.03Q5.27 14.03 6.37 12.95Q7.46 11.87 7.46 10.12L7.46 10.12Q7.46 8.20 6.41 7.18Q5.36 6.16 3.42 6.16L3.42 6.16Q2.43 6.16 2.24 6.19L2.24 6.19ZM3.28 14.40L0.33 14.40L0.39 14.11L1.54 13.90L1.54 6.51L0.37 6.36L0.44 6.12Q2.52 5.79 3.68 5.79L3.68 5.79Q4.64 5.79 5.42 6.03Q6.19 6.26 6.71 6.66Q7.22 7.05 7.56 7.59Q7.90 8.13 8.05 8.71Q8.20 9.29 8.20 9.92L8.20 9.92Q8.20 10.64 8.03 11.28Q7.86 11.93 7.48 12.50Q7.10 13.08 6.53 13.49Q5.97 13.91 5.14 14.15Q4.31 14.40 3.28 14.40L3.28 14.40ZM17.14 6.36L15.92 6.18L15.97 5.89L22.16 5.89L21.95 8.07L21.64 8.03L21.51 6.24L17.86 6.24L17.86 9.89L20.15 9.89L20.40 8.94L20.77 8.89L20.54 11.55L20.19 11.61L20.08 10.26L17.86 10.26L17.86 14.03L21.70 14.03L22.20 12.19L22.48 12.26L22.28 14.40L15.94 14.40L15.98 14.11L17.14 13.90L17.14 6.36ZM31.18 6.34L30.17 6.14L30.20 5.89L33.10 5.89L33.07 6.14L31.92 6.32L34.29 13.30L36.87 6.34L35.59 6.14L35.62 5.89L38.28 5.89L38.25 6.14L37.37 6.32L34.36 14.47L34.01 14.57L31.18 6.34ZM47.20 6.36L45.98 6.18L46.03 5.89L52.22 5.89L52.01 8.07L51.69 8.03L51.56 6.24L47.91 6.24L47.91 9.89L50.20 9.89L50.46 8.94L50.83 8.89L50.60 11.55L50.25 11.61L50.14 10.26L47.91 10.26L47.91 14.03L51.75 14.03L52.26 12.19L52.54 12.26L52.34 14.40L46.00 14.40L46.04 14.11L47.20 13.90L47.20 6.36ZM66.42 14.40L60.27 14.40L60.30 14.11L61.46 13.90L61.46 6.34L60.28 6.17L60.31 5.90L63.42 5.90L63.39 6.17L62.19 6.32L62.19 14.03L65.81 14.03L66.34 12.09L66.64 12.14L66.42 14.40ZM75.13 9.75L75.13 9.75Q75.13 11.03 75.50 12.01Q75.86 13.00 76.58 13.57Q77.29 14.14 78.27 14.14L78.27 14.14Q78.85 14.14 79.34 13.92Q79.83 13.70 80.18 13.33Q80.52 12.96 80.76 12.49Q81.01 12.01 81.12 11.50Q81.24 10.99 81.24 10.48L81.24 10.48Q81.24 8.50 80.39 7.29Q79.54 6.07 78.09 6.07L78.09 6.07Q77.51 6.07 77.01 6.28Q76.52 6.49 76.18 6.85Q75.84 7.21 75.60 7.69Q75.36 8.16 75.25 8.69Q75.13 9.21 75.13 9.75ZM74.38 10.16L74.38 10.16Q74.38 8.16 75.48 6.92Q76.58 5.69 78.42 5.69L78.42 5.69Q79.55 5.69 80.37 6.27Q81.18 6.86 81.58 7.84Q81.98 8.83 81.98 10.11L81.98 10.11Q81.98 10.75 81.83 11.38Q81.68 12.00 81.35 12.58Q81.03 13.17 80.56 13.61Q80.10 14.05 79.43 14.32Q78.75 14.58 77.94 14.58L77.94 14.58Q76.89 14.58 76.07 13.98Q75.24 13.37 74.81 12.37Q74.38 11.37 74.38 10.16ZM93.11 14.40L89.70 14.40L89.74 14.11L90.82 13.90L90.82 6.51L89.71 6.36L89.77 6.12Q89.94 6.09 90.39 6.02Q90.84 5.94 91.06 5.91Q91.29 5.88 91.70 5.84Q92.11 5.81 92.53 5.81L92.53 5.81Q93.22 5.81 93.81 5.96Q94.40 6.10 94.86 6.40Q95.32 6.69 95.58 7.18Q95.84 7.66 95.84 8.29L95.84 8.29Q95.84 8.90 95.56 9.43Q95.28 9.97 94.82 10.33Q94.36 10.69 93.75 10.90Q93.15 11.10 92.52 11.10L92.52 11.10Q92.24 11.10 92.18 11.09L92.18 11.09L92.11 10.80L92.48 10.78Q93.14 10.75 93.64 10.55Q94.13 10.36 94.42 10.03Q94.71 9.70 94.85 9.30Q94.99 8.90 94.99 8.43L94.99 8.43Q94.99 7.98 94.82 7.57Q94.66 7.16 94.34 6.83Q94.01 6.50 93.49 6.31Q92.97 6.11 92.32 6.11L92.32 6.11L91.57 6.15L91.57 13.95L93.17 14.08L93.11 14.40ZM113.50 8.09L113.44 5.89L120.50 5.89L120.26 8.16L119.92 8.12L119.80 6.24L117.26 6.24L117.26 13.90L118.47 14.08L118.40 14.40L115.30 14.40L115.34 14.11L116.53 13.90L116.53 6.24L114.10 6.24L113.86 8.15L113.50 8.09ZM129.43 6.33L128.20 6.16L128.22 5.89L131.34 5.89L131.30 6.16L130.15 6.32L130.15 9.95L135.06 9.95L135.06 6.33L133.80 6.16L133.85 5.89L136.96 5.89L136.90 6.16L135.76 6.32L135.76 13.95L137.01 14.08L136.96 14.40L133.87 14.40L133.92 14.11L135.06 13.90L135.06 10.36L130.15 10.36L130.15 13.95L131.42 14.08L131.35 14.40L128.26 14.40L128.29 14.11L129.43 13.90L129.43 6.33ZM145.89 6.33L144.70 6.16L144.74 5.89L147.87 5.89L147.82 6.16L146.62 6.32L146.62 13.95L147.94 14.08L147.88 14.40L144.77 14.40L144.81 14.11L145.89 13.90L145.89 6.33ZM156.90 6.36L155.63 6.14L155.69 5.89L157.76 5.89L162.48 13.17L162.48 6.33L161.23 6.16L161.27 5.89L164.17 5.89L164.12 6.16L162.98 6.32L162.98 14.44L162.61 14.52L157.40 6.65L157.40 13.95L158.66 14.08L158.59 14.40L155.72 14.40L155.76 14.11L156.90 13.90L156.90 6.36ZM171.88 10.27L171.88 10.27Q171.88 9.64 172.05 9.00Q172.22 8.36 172.57 7.78Q172.92 7.21 173.40 6.75Q173.88 6.30 174.55 6.04Q175.21 5.77 175.97 5.77L175.97 5.77Q176.71 5.77 177.41 5.94Q178.12 6.11 178.59 6.47L178.59 6.47L178.38 8.64L178.08 8.61L177.86 6.99Q177.60 6.65 177.05 6.41Q176.50 6.17 175.75 6.17L175.75 6.17Q174.34 6.17 173.50 7.27Q172.66 8.37 172.66 10.07L172.66 10.07Q172.66 10.69 172.77 11.25Q172.88 11.81 173.13 12.34Q173.39 12.87 173.77 13.25Q174.15 13.63 174.73 13.86Q175.32 14.09 176.05 14.09L176.05 14.09Q177.11 14.09 177.83 13.59L177.83 13.59L177.84 11.03L176.20 10.86L176.24 10.60L179.52 10.60L179.47 10.86L178.55 11.01L178.55 13.86Q177.91 14.25 177.17 14.39Q176.43 14.53 175.34 14.53L175.34 14.53Q174.64 14.53 174.01 14.23Q173.37 13.93 172.90 13.39Q172.44 12.85 172.16 12.04Q171.88 11.23 171.88 10.27ZM187.20 13.60L187.20 13.60L187.40 11.66L187.73 11.71L187.92 13.21Q188.15 13.64 188.68 13.89Q189.21 14.14 189.81 14.14L189.81 14.14Q190.49 14.14 190.97 13.74Q191.45 13.33 191.45 12.61L191.45 12.61Q191.45 12.20 191.23 11.83Q191.02 11.46 190.67 11.18Q190.33 10.90 189.91 10.63Q189.49 10.36 189.07 10.07Q188.65 9.79 188.31 9.48Q187.96 9.17 187.75 8.75Q187.53 8.33 187.53 7.84L187.53 7.84Q187.53 6.88 188.22 6.29Q188.92 5.71 189.80 5.71L189.80 5.71Q190.39 5.71 190.93 5.90Q191.47 6.09 191.80 6.46L191.80 6.46L191.57 8.58L191.26 8.53L191.07 6.87Q190.89 6.54 190.47 6.32Q190.05 6.10 189.62 6.10L189.62 6.10Q189.03 6.10 188.61 6.48Q188.20 6.87 188.20 7.52L188.20 7.52Q188.20 7.96 188.42 8.35Q188.64 8.74 189.00 9.03Q189.35 9.32 189.77 9.61Q190.20 9.89 190.62 10.17Q191.05 10.45 191.40 10.75Q191.75 11.05 191.98 11.45Q192.20 11.85 192.20 12.29L192.20 12.29Q192.20 13.28 191.45 13.93Q190.70 14.57 189.45 14.57L189.45 14.57Q188.74 14.57 188.14 14.30Q187.54 14.03 187.20 13.60Z"></path></g></svg>