<svg data-v-fde0c5aa="" xmlns="http://www.w3.org/2000/svg" viewBox="0 0 300 300" class="font"><!----><defs data-v-fde0c5aa=""><linearGradient data-v-fde0c5aa="" gradientTransform="rotate(25)" id="395d06ea-ca86-417a-9a39-c2fd64eb19e6" x1="0%" y1="0%" x2="100%" y2="0%"><stop data-v-fde0c5aa="" offset="0%" stop-color="#420F14" stop-opacity="1"></stop><stop data-v-fde0c5aa="" offset="100%" stop-color="#C5545E" stop-opacity="1"></stop></linearGradient></defs><rect data-v-fde0c5aa="" fill="url(#395d06ea-ca86-417a-9a39-c2fd64eb19e6)" x="0" y="0" width="300px" height="300px" class="logo-background-square"></rect><defs data-v-fde0c5aa=""><!----></defs><g data-v-fde0c5aa="" id="3c78fe1d-2d8a-41b6-a19e-0fda11ee8bc4" fill="#ffffff" transform="matrix(3.3348491121591524,0,0,3.3348491121591524,37.66560566124309,117.3685011512903)"><path d="M10.74 8.58L10.74 8.58Q10.74 10.04 10.07 11.24Q9.41 12.45 8.09 13.23Q6.76 14.01 4.95 14.01Q3.14 14.01 1.92 12.96Q0.70 11.91 0.70 10.36L0.70 10.36Q0.70 9.23 1.42 8.42Q2.14 7.62 3.19 7.42L3.19 7.42Q3.19 6.23 3.14 4.59L3.14 4.59Q2.46 4.59 2.46 4.12Q2.46 3.64 3.40 3.40Q4.34 3.16 5.49 3.16Q6.64 3.16 7.69 3.63Q8.74 4.09 9.38 4.87L9.38 4.87Q10.74 6.48 10.74 8.58ZM3.15 10.79L3.15 10.79L3.21 9.07L3.21 8.40Q2.56 8.58 2.18 9.12Q1.79 9.66 1.79 10.36L1.79 10.36Q1.79 11.45 2.67 12.25L2.67 12.25Q3.58 13.03 5.00 13.03L5.00 13.03Q6.94 13.03 8.27 11.75Q9.59 10.47 9.59 8.72Q9.59 6.97 8.55 5.60L8.55 5.60Q8.04 4.93 7.20 4.54Q6.36 4.14 5.33 4.14L5.33 4.14Q4.84 4.14 4.28 4.27L4.28 4.27L4.21 7.35Q5.15 7.41 5.91 7.93Q6.66 8.46 6.66 9.03L6.66 9.03Q6.66 9.37 6.38 9.46L6.38 9.46Q6.31 9.51 6.17 9.51Q6.03 9.51 5.91 9.40Q5.78 9.30 5.54 9.03Q5.31 8.76 5.18 8.65L5.18 8.65Q4.70 8.29 4.20 8.29L4.20 8.29L4.21 9.30L4.26 10.14Q4.28 10.50 4.28 10.65Q4.28 10.79 4.28 10.95Q4.27 11.10 4.12 11.29Q3.96 11.48 3.80 11.48Q3.64 11.48 3.51 11.42L3.51 11.42Q3.15 11.24 3.15 10.79ZM15.96 7.50L15.96 7.50Q15.04 7.50 14.41 8.20Q13.79 8.89 13.59 9.81L13.59 9.81Q14.35 10.04 15.29 10.04Q16.24 10.04 16.81 9.72Q17.39 9.39 17.39 8.83Q17.39 8.27 17.00 7.89Q16.62 7.50 15.96 7.50ZM15.36 10.92L15.36 10.92Q14.63 10.92 13.58 10.71L13.58 10.71Q13.66 11.70 14.32 12.40Q14.97 13.10 15.83 13.10Q16.70 13.10 17.26 12.68Q17.82 12.25 18.00 12.25Q18.17 12.25 18.28 12.36Q18.38 12.46 18.38 12.61L18.38 12.61Q18.38 13.01 17.58 13.51Q16.77 14.01 15.83 14.01L15.83 14.01Q14.38 14.01 13.52 12.98Q12.66 11.96 12.60 10.53L12.60 10.53Q11.86 10.29 11.86 9.80L11.86 9.80Q11.86 9.48 12.10 9.38L12.10 9.38Q12.18 9.35 12.31 9.35Q12.45 9.35 12.68 9.48L12.68 9.48Q13.01 8.20 13.85 7.40Q14.70 6.59 15.84 6.59Q16.98 6.59 17.68 7.22Q18.38 7.85 18.38 8.87Q18.38 9.88 17.51 10.40Q16.65 10.92 15.36 10.92ZM22.81 12.07L22.81 12.07L23.53 10.07Q23.70 9.62 24.04 8.55Q24.37 7.49 24.50 7.17L24.50 7.17Q24.70 6.66 25.05 6.66L25.05 6.66Q25.26 6.66 25.40 6.80Q25.55 6.93 25.55 7.12Q25.55 7.31 25.47 7.52Q25.40 7.73 25.33 7.88Q25.27 8.02 25.17 8.28Q25.07 8.54 24.93 8.89Q24.79 9.24 24.16 11.02Q23.52 12.80 23.23 13.37Q22.93 13.94 22.45 13.94Q21.97 13.94 21.71 13.44L21.71 13.44Q21.63 13.29 20.99 11.59L20.99 11.59L20.15 9.39Q19.64 8.11 19.52 7.75Q19.39 7.39 19.39 7.16Q19.39 6.93 19.53 6.80Q19.67 6.66 19.88 6.66L19.88 6.66Q20.26 6.66 20.45 7.15L20.45 7.15Q20.58 7.48 20.86 8.39L20.86 8.39L21.69 10.74Q22.12 11.97 22.26 12.32Q22.40 12.67 22.46 12.68L22.46 12.68Q22.57 12.68 22.81 12.07ZM29.41 13.41Q29.41 13.57 29.25 13.76Q29.09 13.94 28.83 13.94Q28.57 13.94 28.43 13.76Q28.28 13.57 28.27 13.41Q28.27 13.26 28.27 13.10Q28.27 12.95 28.29 12.05Q28.32 11.14 28.32 8.55Q28.32 5.96 28.48 5.07L28.48 5.07Q27.73 5.01 26.84 4.75L26.84 4.75Q25.19 4.24 25.19 3.65L25.19 3.65Q25.17 3.33 25.47 3.18L25.47 3.18Q25.61 3.11 25.74 3.11Q25.87 3.11 26.01 3.22L26.01 3.22Q26.22 3.33 26.38 3.44L26.38 3.44Q26.92 3.82 28.69 4.09L28.69 4.09Q29.05 3.35 29.82 2.95Q30.59 2.55 31.46 2.55Q32.34 2.55 32.82 2.94L32.82 2.94Q33.32 3.32 33.32 3.83Q33.32 4.34 32.75 4.77Q32.17 5.21 30.72 5.21L30.72 5.21Q29.92 5.21 29.47 5.17L29.47 5.17Q29.33 5.59 29.33 7.98Q29.33 10.37 29.37 11.82Q29.41 13.26 29.41 13.41ZM31.36 3.53L31.36 3.53Q30.18 3.53 29.71 4.20L29.71 4.20Q30.07 4.27 30.51 4.27Q30.94 4.27 31.60 4.14Q32.27 4.02 32.27 3.82L32.27 3.82Q32.27 3.53 31.36 3.53ZM40.63 9.39L40.63 9.39L40.56 11.59L40.56 12.19Q40.59 12.77 40.84 12.88L40.84 12.88Q40.94 12.91 41.06 12.93Q41.19 12.95 41.24 12.98Q41.29 13.01 41.29 13.09L41.29 13.09Q41.29 13.45 41.06 13.70Q40.82 13.94 40.52 13.94L40.52 13.94Q40.00 13.94 39.79 13.54Q39.58 13.13 39.58 12.29L39.58 12.29L39.63 9.72Q39.63 8.75 39.22 8.17Q38.81 7.59 38.09 7.59Q37.38 7.59 36.72 8.38Q36.05 9.17 35.77 10.19L35.77 10.19L35.81 13.23Q35.81 13.94 35.28 13.94L35.28 13.94Q34.64 13.94 34.64 12.98Q34.64 12.03 34.92 10.19L34.92 10.19Q34.92 9.24 34.79 6.60Q34.66 3.96 34.66 3.75Q34.66 3.54 34.81 3.35Q34.96 3.15 35.12 3.15Q35.28 3.15 35.42 3.22L35.42 3.22Q35.76 3.37 35.76 3.77L35.76 3.77Q35.76 3.82 35.76 3.86L35.76 3.86L35.76 8.44Q36.78 6.66 38.28 6.66L38.28 6.66Q39.41 6.66 40.02 7.47Q40.63 8.27 40.63 9.39ZM43.43 3.65L43.43 3.65Q44.00 3.65 44.00 4.33L44.00 4.33Q44.00 4.63 43.80 4.91Q43.60 5.18 43.32 5.18L43.32 5.18Q42.73 5.18 42.73 4.47L42.73 4.47Q42.73 4.13 42.93 3.89Q43.13 3.65 43.43 3.65ZM43.89 7.36L43.89 7.36L43.82 10.30L43.89 13.24Q43.89 13.94 43.36 13.94Q42.83 13.94 42.83 13.24L42.83 13.24L42.90 10.30L42.83 7.36Q42.83 6.66 43.36 6.66Q43.89 6.66 43.89 7.36ZM51.87 9.39L51.87 9.39L51.80 11.59L51.80 12.19Q51.83 12.77 52.08 12.88L52.08 12.88Q52.18 12.91 52.30 12.93Q52.43 12.95 52.48 12.98Q52.53 13.01 52.53 13.09L52.53 13.09Q52.53 13.45 52.30 13.70Q52.07 13.94 51.76 13.94L51.76 13.94Q51.24 13.94 51.03 13.54Q50.82 13.13 50.82 12.29L50.82 12.29L50.88 9.72Q50.88 8.75 50.46 8.17Q50.05 7.59 49.34 7.59Q48.62 7.59 47.96 8.38Q47.29 9.17 47.01 10.19L47.01 10.19L47.05 13.23Q47.05 13.94 46.52 13.94L46.52 13.94Q45.88 13.94 45.88 12.98Q45.88 12.03 46.16 10.19L46.16 10.19Q46.16 9.60 46.04 8.54Q45.92 7.48 45.92 7.25Q45.92 7.03 46.07 6.85Q46.23 6.66 46.47 6.66Q46.70 6.66 46.86 6.85Q47.01 7.03 47.01 7.24Q47.01 7.45 47.01 7.87Q47.00 8.29 47.00 8.44L47.00 8.44Q48.02 6.66 49.52 6.66L49.52 6.66Q50.64 6.66 51.25 7.47Q51.87 8.27 51.87 9.39ZM58.74 10.53L58.74 10.53L58.74 8.39Q57.97 7.57 57.04 7.57Q56.11 7.57 55.42 8.40Q54.73 9.23 54.73 10.38Q54.73 11.54 55.17 12.29Q55.61 13.03 56.36 13.03Q57.12 13.03 57.76 12.33Q58.39 11.62 58.74 10.53ZM58.72 7.32L58.72 7.32Q58.74 6.66 59.25 6.66L59.25 6.66Q59.89 6.66 59.89 7.62Q59.89 8.58 59.61 10.42L59.61 10.42Q59.78 12.12 59.78 12.96L59.78 12.96Q59.78 14.78 58.91 15.90Q58.04 17.02 56.50 17.02L56.50 17.02Q55.66 17.02 54.88 16.67Q54.10 16.31 54.10 15.95Q54.10 15.60 54.42 15.60L54.42 15.60Q54.54 15.60 55.13 15.86Q55.72 16.11 56.50 16.11L56.50 16.11Q57.62 16.11 58.27 15.28Q58.91 14.45 58.91 13.10L58.91 13.10Q58.91 12.61 58.84 12.10L58.84 12.10Q58.52 12.85 57.83 13.40Q57.15 13.94 56.41 13.94L56.41 13.94Q55.06 13.94 54.32 12.78L54.32 12.78Q53.69 11.73 53.69 10.33Q53.69 8.93 54.63 7.80Q55.57 6.66 56.97 6.66L56.97 6.66Q57.93 6.66 58.72 7.32ZM66.67 11.79L66.67 11.79Q66.67 12.73 65.89 13.34Q65.11 13.94 64.04 13.94Q62.96 13.94 62.15 13.45L62.15 13.45Q61.35 12.95 61.35 12.46L61.35 12.46Q61.35 12.14 61.61 12.03Q61.88 11.91 62.02 12.05L62.02 12.05Q62.05 12.07 62.58 12.60L62.58 12.60Q62.73 12.74 63.15 12.89Q63.57 13.03 63.90 13.03L63.90 13.03Q64.68 13.03 65.17 12.71Q65.66 12.39 65.66 11.80L65.66 11.80Q65.66 11.06 64.26 10.58L64.26 10.58Q62.71 10.05 62.27 9.67L62.27 9.67Q62.06 9.49 61.89 9.19Q61.71 8.89 61.71 8.55L61.71 8.55Q61.71 7.80 62.41 7.23Q63.10 6.66 64.06 6.66Q65.03 6.66 65.63 6.99Q66.23 7.32 66.23 7.73L66.23 7.73Q66.23 8.19 65.74 8.19L65.74 8.19Q65.55 8.19 65.32 8.04L65.32 8.04Q64.65 7.57 64.03 7.57Q63.41 7.57 63.08 7.85L63.08 7.85Q62.71 8.12 62.71 8.48Q62.71 8.83 63.07 9.06Q63.43 9.28 64.26 9.61Q65.09 9.94 65.27 10.02L65.27 10.02Q65.88 10.29 66.28 10.75Q66.67 11.21 66.67 11.79Z"></path></g><!----><!----></svg>