<svg data-v-423bf9ae="" xmlns="http://www.w3.org/2000/svg" viewBox="0 0 209.52087006023964 60" class="font"><!----><!----><defs data-v-423bf9ae=""><linearGradient data-v-423bf9ae="" gradientTransform="rotate(25)" id="cf8ba945-c2d5-428a-bbdb-d2b0564a73e2" x1="0%" y1="0%" x2="100%" y2="0%"><stop data-v-423bf9ae="" offset="0%" style="stop-color: rgb(26, 20, 57); stop-opacity: 1;"></stop><stop data-v-423bf9ae="" offset="100%" style="stop-color: rgb(203, 159, 152); stop-opacity: 1;"></stop></linearGradient></defs><g data-v-423bf9ae="" id="f4fc0d74-bd71-4585-bc69-576ec5b555f6" fill="url(#cf8ba945-c2d5-428a-bbdb-d2b0564a73e2)" transform="matrix(3.6855035300593095,0,0,3.6855035300593095,1.8427499319313085,1.4373467616636901)"><path d="M0.95 8.36C0.01 8.36-0.50 9.03-0.50 9.63C-0.50 10.25 0.03 10.61 0.74 10.61C1.33 10.61 2.02 10.47 2.65 10.00C3.14 10.33 3.72 10.61 4.49 10.61C7.70 10.61 9.49 7 9.49 3.89C9.49 1.67 8.32-0.28 5.39-0.28C2.07-0.28 0.45 0.90 0.45 2.30C0.45 3.00 0.87 3.63 1.58 3.63C1.78 3.63 1.97 3.58 2.18 3.49C2.02 3.29 1.90 3.04 1.90 2.67C1.90 1.48 2.88 0.39 5.12 0.39C6.97 0.39 7.69 2.03 7.69 3.92C7.69 6.55 6.57 9.72 4.30 9.72C3.91 9.72 3.56 9.60 3.22 9.45C3.64 8.92 4.00 8.16 4.24 7.11L5.57 1.02C5.40 0.91 5.15 0.84 4.90 0.84C4.38 0.84 3.84 1.08 3.70 1.74L2.45 7.60C2.34 8.08 2.20 8.46 2.03 8.74C1.67 8.53 1.32 8.36 0.95 8.36ZM0.84 9.58C0.55 9.58 0.34 9.44 0.34 9.23C0.34 9.03 0.57 8.82 0.97 8.82C1.19 8.82 1.41 8.97 1.68 9.20C1.40 9.48 1.09 9.58 0.84 9.58ZM14.63 4.72C14.63 4.09 14.31 3.37 13.03 3.37C10.72 3.37 9.52 6.29 9.52 8.11C9.52 9.83 10.58 10.61 11.90 10.61C13.26 10.61 14.88 9.77 15.85 8.36C16.00 8.11 15.86 7.81 15.50 7.88C14.90 8.68 13.61 9.39 12.60 9.39C11.96 9.39 11.44 9.11 11.30 8.36C14 6.86 14.63 5.91 14.63 4.72ZM13.13 4.47C13.37 4.47 13.54 4.69 13.54 5.01C13.54 5.92 12.61 6.90 11.26 7.76C11.30 6.78 11.75 4.47 13.13 4.47ZM16.11 4.91C15.61 6.54 15.65 10.61 17.14 10.61C18.65 10.61 20.94 7.18 20.94 3.98C20.94 2.95 20.36 2.44 19.81 2.42C19.35 2.41 18.90 2.77 18.87 3.50C19.46 3.77 19.74 4.59 19.74 5.53C19.74 6.85 19.04 8.32 17.98 9.16C17.39 8.01 17.56 5.92 17.92 4.20C18.05 3.67 17.75 3.43 17.25 3.43C16.66 3.43 16.16 3.72 15.68 4.10C15.40 4.33 15.50 4.76 15.68 4.87C15.81 4.76 15.89 4.70 15.96 4.70C16.09 4.70 16.14 4.80 16.11 4.91ZM23.27 2.86C23.27 1.27 24.43 0.56 25.42 0.56C25.48 0.56 25.55 0.57 25.62 0.59L23.39 10.43C23.55 10.54 23.81 10.61 24.14 10.61C24.65 10.61 25.20 10.37 25.34 9.72L27.15 1.20C27.75 1.47 28.36 1.72 28.83 1.72C29.83 1.72 30.51 0.87 30.20-0.39C28.59 0.32 27.24-0.28 25.69-0.28C24.36-0.28 21.81 0.21 21.81 2.51C21.81 3.18 22.23 3.81 22.96 3.81C23.14 3.81 23.34 3.77 23.55 3.67C23.35 3.44 23.27 3.09 23.27 2.86ZM32.13 10.61C33.07 10.61 34.01 9.97 34.66 9.23C34.75 9.13 34.79 9.02 34.79 8.92C34.79 8.78 34.71 8.65 34.55 8.58C34.20 8.93 33.60 9.28 33.08 9.28C32.80 9.28 32.62 9.11 32.70 8.71L33.39 5.49C33.74 3.84 32.77 3.43 32.07 3.43C31.36 3.43 30.74 3.95 30.21 4.70L30.94 1.27C31.05 0.74 30.77 0.50 30.27 0.50C29.51 0.50 28.50 1.18 28.50 1.50C28.50 1.61 28.52 1.75 28.71 1.93C28.94 1.67 29.20 1.75 29.12 2.13L27.34 10.47C27.51 10.58 27.68 10.61 27.93 10.61C28.43 10.61 28.97 10.37 29.11 9.73L29.99 5.75C30.37 5.31 30.79 5.01 31.29 5.01C31.75 5.01 31.72 5.39 31.63 5.84L31.04 8.62C30.69 10.26 31.43 10.61 32.13 10.61ZM35.63 1.62C35.55 2.17 35.95 2.60 36.50 2.60C37.04 2.60 37.51 2.17 37.59 1.62C37.65 1.08 37.24 0.64 36.69 0.64C36.15 0.64 35.69 1.08 35.63 1.62ZM34.36 8.95C34.09 10.22 34.90 10.61 35.60 10.61C36.54 10.61 37.48 9.97 38.14 9.23C38.22 9.13 38.26 9.02 38.26 8.92C38.26 8.78 38.18 8.65 38.02 8.58C37.67 8.93 37.07 9.28 36.55 9.28C36.19 9.28 35.97 9.03 36.13 8.25L36.99 4.20C37.10 3.67 36.82 3.43 36.32 3.43C35.73 3.43 35.22 3.72 34.75 4.10C34.47 4.33 34.57 4.76 34.75 4.87C34.87 4.76 34.96 4.70 35.03 4.70C35.15 4.70 35.21 4.83 35.17 5.05ZM38.22 4.87C38.35 4.76 38.43 4.70 38.50 4.70C38.63 4.70 38.70 4.83 38.64 5.05L37.49 10.43C37.66 10.54 37.90 10.61 38.15 10.61C38.65 10.61 39.19 10.37 39.33 9.73L40.18 5.74C40.49 5.36 41.05 5.01 41.43 5.01C41.73 5.01 41.93 5.25 41.80 5.84L41.22 8.62C40.87 10.26 41.61 10.61 42.31 10.61C43.25 10.61 44.18 9.97 44.84 9.23C44.93 9.13 44.97 9.02 44.97 8.92C44.97 8.78 44.88 8.65 44.73 8.58C44.38 8.93 43.78 9.28 43.26 9.28C42.98 9.28 42.80 9.11 42.88 8.71L43.57 5.49C43.89 4.02 43.36 3.43 42.62 3.43C41.80 3.43 40.91 3.99 40.32 4.83L40.46 4.20C40.59 3.67 40.29 3.43 39.79 3.43C39.20 3.43 38.70 3.72 38.22 4.10C37.94 4.33 38.04 4.76 38.22 4.87ZM51.87 9.21C52.11 9.00 52.07 8.69 51.86 8.51C51.37 8.93 50.62 9.35 49.85 9.73C49.90 9.55 49.94 9.35 49.98 9.16L51.16 3.61C50.99 3.50 50.75 3.43 50.50 3.43C50.15 3.43 49.77 3.56 49.53 3.84C49.18 3.53 48.73 3.37 48.10 3.37C46.16 3.37 44.58 5.81 44.58 8.26C44.58 9.16 44.87 10.61 46.33 10.61C47.08 10.61 47.80 10.08 48.37 9.31C48.26 9.70 48.16 10.05 48.06 10.40C46.17 11.10 43.99 12.43 43.99 14.17C43.99 15.33 44.79 15.89 45.64 15.89C48.06 15.89 49.04 13.13 49.67 10.53C50.67 10.07 51.62 9.44 51.87 9.21ZM48.48 8.29C48.10 8.81 47.52 9.17 47.07 9.17C46.63 9.17 46.31 8.86 46.31 8.16C46.31 6.64 46.91 4.42 48.61 4.42C48.82 4.42 49.03 4.45 49.27 4.54ZM45.51 14.64C45.33 14.64 44.94 14.48 44.94 13.99C44.94 13.05 46.23 12.00 47.77 11.38C47.05 13.68 46.48 14.64 45.51 14.64ZM53.03 10.61C55.09 10.61 55.90 9.60 55.90 8.25C55.90 6.47 53.61 6.79 53.61 5.31C53.61 4.55 54.04 4.17 54.42 4.17C54.75 4.17 55.05 4.41 55.05 4.93C55.05 5.21 54.95 5.52 54.81 5.68C54.99 5.81 55.19 5.87 55.37 5.88C55.89 5.91 56.35 5.52 56.35 4.73C56.35 3.82 55.78 3.37 54.59 3.37C52.96 3.37 52.19 4.41 52.19 5.53C52.19 7.63 54.50 7.50 54.50 8.57C54.50 9.25 53.93 9.69 53.40 9.69C52.95 9.69 52.51 9.41 52.51 8.76C52.51 8.43 52.63 8.09 52.81 7.88C52.65 7.74 52.47 7.69 52.25 7.69C51.56 7.69 51.16 8.19 51.06 8.76C50.90 9.70 51.53 10.61 53.03 10.61Z"></path></g><!----><!----></svg>